<svg
   xmlns:svg="http://www.w3.org/2000/svg"
   xmlns="http://www.w3.org/2000/svg"
   version="1.1"
   viewBox="0 0 49.635157 67.993368"
   fill="white">
  <g
     transform="translate(-10.010573,-983.62973)"
     id="layer1">
    <g
       transform="matrix(1.6998342,0,0,1.6998342,176.07708,-743.6109)">
      <path
         d="m -90.615709,1049.003 7.08,-0.32 q -1.32,-4.48 -1.6,-7.52 -0.28,-3.04 0.08,-4.76 0.4,-1.72 1.04,-2.6 0.68,-0.92 1.2,-1.16 0.52,-0.24 0.56,-0.24 1.44,-0.28 3.04,-1 1.6,-0.72 3.12,-1.68 1.52,-0.96 2.88,-2.04 1.4,-1.12 2.44,-2.12 1.04,-1 1.64,-1.8 0.64,-0.8 0.64,-1.16 0,-0.36 -0.08,-0.96 -0.04,-0.64 -0.4,-1.36 -0.36,-0.72 -1.16,-1.44 -0.8,-0.76 -2.28,-1.36 -1.44,-0.6 -3.72,-0.96 -2.28,-0.4 -5.56,-0.4 0,0 -1,0.04 -1,0.04 -2.56,0.28 -1.52,0.24 -3.4,0.76 -1.88,0.48 -3.68,1.44 -1.76,0.96 -3.24,2.44 -1.44,1.44 -2.12,3.56 l 5.32,0.2 q 1.04,-2 2.68,-3.08 1.68,-1.12 3.24,-1.6 1.6,-0.52 2.72,-0.6 1.16,-0.08 1.16,-0.08 0.96,0 2.32,0.08 1.4,0.04 2.68,0.36 1.32,0.28 2.2,0.96 0.92,0.68 0.92,1.92 0,1.88 -1.16,2.8 -1.12,0.88 -3.04,1.36 -1.88,0.44 -4.36,0.72 -2.48,0.24 -5.16,0.84 -0.04,0 -0.72,0.32 -0.64,0.28 -1.48,1.44 -0.84,1.16 -1.4,3.36 -0.52,2.16 -0.36,5.96 0.16,3.8 1.52,9.4 z m 0.28,7.12 0,-5.08 6.8,0 0.44,5.08 -7.24,0 z" />
    </g>
  </g>
</svg>
