<?xml version="1.0" encoding="UTF-8" standalone="no"?><!DOCTYPE svg PUBLIC "-//W3C//DTD SVG 1.1//EN" "http://www.w3.org/Graphics/SVG/1.1/DTD/svg11.dtd"><svg width="100%" height="100%" viewBox="0 0 225 93" version="1.1" xmlns="http://www.w3.org/2000/svg" xmlns:xlink="http://www.w3.org/1999/xlink" xml:space="preserve" xmlns:serif="http://www.serif.com/" style="fill-rule:evenodd;clip-rule:evenodd;stroke-linecap:square;stroke-miterlimit:1.5;"><g id="Cover"><path d="M192.113,32.282l-34.197,-18.733l-40.322,22.599l74.519,-3.866Z" style="fill:#2c4e5f;"/><path d="M93.311,34.602l-21.47,16.474l47.875,-2.32l-26.405,-14.154Z" style="fill:#2c4e5f;"/><path d="M50.729,48.756l-17.842,10.884l34.851,-2.558l-17.009,-8.326Z" style="fill:#2c4e5f;"/><path d="M35.27,60.081l30.777,-1.859l-0.297,20.147l-28.547,-0.075l-1.933,-18.213Z" style="fill:#913b20;"/><path d="M73.407,52.647l45.097,-2.305l-8.002,25.648l-31.669,1.04l-5.426,-24.383Z" style="fill:#913b20;"/><path d="M121.382,37.928l67.129,-3.94l-7.36,38.136l-52.484,2.453l-7.285,-36.649Z" style="fill:#913b20;"/><path d="M176.394,18.227l6.542,0.298l-0.521,6.244l-6.17,-2.304l0.149,-4.238Z" style="fill:#913b20;"/><path d="M110.157,38.374l5.129,-0.372l-0.149,6.021l-4.832,-2.007l-0.148,-3.642Z" style="fill:#913b20;"/><path d="M59.488,49.505l2.997,0.195l-0.146,3.508l-2.826,-1.389l-0.025,-2.314Z" style="fill:#913b20;"/><path d="M157.56,16.046l-30.272,16.891l56.261,-1.368l-25.989,-15.523Z" style="fill:#c590c1;"/><path d="M93.567,36.2l22.472,11.496l-39.638,2.088l17.166,-13.584Z" style="fill:#8dc63f;"/><path d="M36.263,58.466l14.511,-8.659l12.799,6.518l-27.31,2.141Z" style="fill:#d3dc23;"/><path d="M150.137,70.98l-2.055,-22l17.166,0.229l-2.588,21.01l-12.523,0.761Z" style="fill:#c590c1;"/><path d="M147.258,48.219l2.2,23.554l13.87,-0.843l2.767,-22.46l-18.837,-0.251Zm2.879,22.761l-2.055,-22l17.166,0.229l-2.588,21.01l-12.523,0.761Z" style="fill:#2c4e5f;"/><path d="M90.069,61.617l10.772,-0.99l-0.077,13.817l-9.477,0.381l-1.218,-13.208Z" style="fill:#8dc63f;"/><path d="M101.595,59.805l-12.342,1.134l1.353,14.663l10.905,-0.437l0.084,-15.36Zm-11.526,1.812l10.772,-0.99l-0.077,13.817l-9.477,0.381l-1.218,-13.208Z" style="fill:#2c4e5f;"/><path d="M54.679,64.167l-1.37,13.626l-7.689,-0.266l-0.571,-12.484l9.63,-0.876Z" style="fill:#d3dc23;"/><path d="M55.425,64.242l-0.814,-0.822l-10.344,0.941l0.636,13.892l9.082,0.314l1.44,-14.325Zm-0.746,-0.075l-1.37,13.626l-7.689,-0.266l-0.571,-12.484l9.63,-0.876Z" style="fill:#2c4e5f;"/><path d="M38.228,65.623l4.263,-1.315l0.147,5.042l-3.216,0.293l-1.194,-4.02Z" style="fill:#fff;"/><path d="M42.27,63.591l-4.972,1.534l1.58,5.32l4.53,-0.412l-0.167,-5.747l-0.971,-0.695Zm-4.042,2.032l4.263,-1.315l0.147,5.042l-3.216,0.293l-1.194,-4.02Z" style="fill:#2c4e5f;"/><path d="M57.132,63.309l0.073,5.603l3.678,0.268l1.462,-5.871l-5.213,0Z" style="fill:#fff;"/><path d="M62.345,62.559l-5.973,0l0.092,7.051l4.994,0.364l1.614,-6.484l-0.727,-0.931Zm-5.213,0.75l0.073,5.603l3.678,0.268l1.462,-5.871l-5.213,0Z" style="fill:#2c4e5f;"/><path d="M79.065,59.387l6.09,-1.218l-0.122,6.797l-4.677,0.194l-1.291,-5.773Z" style="fill:#fff;"/><path d="M85.008,57.434l-6.843,1.368l1.596,7.134l6.009,-0.251l0.134,-7.502l-0.896,-0.749Zm-5.943,1.953l6.09,-1.218l-0.122,6.797l-4.677,0.194l-1.291,-5.773Z" style="fill:#2c4e5f;"/><path d="M103.887,57.39l1.145,9.135l4.896,0.877l1.681,-9.939l-7.722,-0.073Z" style="fill:#fff;"/><path d="M103.894,56.64l-0.751,0.843l1.214,9.683l6.185,1.107l1.807,-10.685l-0.733,-0.875l-7.722,-0.073Zm-0.007,0.75l1.145,9.135l4.896,0.877l1.681,-9.939l-7.722,-0.073Z" style="fill:#2c4e5f;"/><path d="M128.749,48.474l10.816,0.219l-1.364,9.622l-8.453,0.561l-0.999,-10.402" style="fill:#fff;stroke:#2c4e5f;stroke-width:0.75px;"/><path d="M172.511,48.23l-1.17,10.743l5.701,0.024l1.437,-10.572l-5.968,-0.195Z" style="fill:#fff;"/><path d="M179.334,47.703l-7.494,-0.245l-1.334,12.261l7.19,0.031l1.638,-12.047Zm-6.823,0.527l-1.17,10.743l5.701,0.024l1.437,-10.572l-5.968,-0.195Z" style="fill:#2c4e5f;"/></g></svg>